<?xml version="1.0" standalone="no"?>
<!DOCTYPE svg PUBLIC "-//W3C//DTD SVG 20010904//EN"
 "http://www.w3.org/TR/2001/REC-SVG-20010904/DTD/svg10.dtd">
<svg version="1.0" xmlns="http://www.w3.org/2000/svg"
 width="1024.000000pt" height="1024.000000pt" viewBox="0 0 1024.000000 1024.000000"
 preserveAspectRatio="xMidYMid meet">

<g transform="translate(0.000000,1024.000000) scale(0.100000,-0.100000)"
fill="#000000" stroke="none">
<path d="M3018 8923 c7 -3 16 -2 19 1 4 3 -2 6 -13 5 -11 0 -14 -3 -6 -6z"/>
<path d="M3058 8923 c7 -3 16 -2 19 1 4 3 -2 6 -13 5 -11 0 -14 -3 -6 -6z"/>
<path d="M7208 8923 c7 -3 16 -2 19 1 4 3 -2 6 -13 5 -11 0 -14 -3 -6 -6z"/>
<path d="M4546 7953 c-4 -4 -22 -8 -39 -8 -25 0 -32 -4 -32 -20 0 -14 -6 -19
-18 -17 -10 2 -21 -6 -27 -20 -5 -13 -9 -18 -9 -11 -1 7 -7 10 -15 7 -8 -3
-16 2 -19 13 -4 15 -5 14 -6 -4 0 -12 -4 -23 -8 -26 -5 -2 -2 -2 5 -1 6 2 12
0 12 -5 0 -5 -9 -11 -20 -14 -13 -3 -20 0 -20 10 0 8 -5 11 -10 8 -7 -4 -7
-12 0 -25 7 -13 7 -21 0 -25 -5 -3 -10 0 -10 7 0 10 -2 10 -9 -1 -5 -8 -10 -9
-12 -2 -5 14 -95 -32 -91 -47 1 -7 -2 -12 -8 -12 -5 0 -10 -8 -11 -17 0 -11
-3 -13 -6 -5 -2 6 -9 12 -15 12 -5 0 -8 -6 -5 -12 4 -13 -29 -48 -45 -48 -4 0
-8 -7 -8 -15 0 -9 -10 -19 -22 -24 -27 -11 -59 -47 -50 -56 4 -3 -2 -3 -13 1
-19 7 -19 7 -2 -13 17 -19 16 -20 -13 -21 -57 -3 -60 -5 -50 -17 5 -7 7 -14 5
-17 -3 -3 6 -4 20 -2 23 2 24 0 13 -14 -7 -9 -8 -13 -2 -9 6 3 20 -1 30 -9 10
-9 12 -12 4 -8 -9 4 -12 3 -7 -2 5 -5 13 -10 18 -10 5 -1 14 -2 20 -3 5 0 7
-6 4 -11 -4 -6 -3 -10 2 -9 21 4 34 -2 27 -13 -4 -7 -3 -8 4 -4 7 4 23 -4 36
-17 14 -14 27 -22 30 -20 3 3 8 -2 12 -11 3 -9 12 -16 20 -16 8 0 14 -4 14
-10 0 -5 6 -10 14 -10 8 0 17 -7 20 -16 4 -9 9 -14 13 -11 3 4 11 1 17 -7 16
-19 234 -166 247 -166 6 0 79 49 162 108 84 60 212 150 285 202 72 51 132 97
132 101 0 9 -255 189 -269 189 -5 0 -12 7 -15 16 -3 8 -10 13 -15 10 -5 -3
-12 1 -15 10 -3 8 -10 13 -15 9 -6 -3 -14 3 -20 12 -6 10 -11 14 -11 8 0 -5
-10 1 -21 15 -11 14 -18 18 -14 10 4 -8 -2 -6 -12 5 -10 11 -25 21 -32 23 -23
5 -61 39 -53 47 4 3 3 6 -3 5 -21 -5 -36 0 -30 10 4 6 3 10 -2 9 -20 -3 -34 2
-28 11 7 12 2 13 -9 3z m-296 -173 c0 -5 -4 -10 -10 -10 -5 0 -10 5 -10 10 0
6 5 10 10 10 6 0 10 -4 10 -10z"/>
<path d="M4440 7930 c0 -5 5 -10 11 -10 5 0 7 5 4 10 -3 6 -8 10 -11 10 -2 0
-4 -4 -4 -10z"/>
<path d="M6772 7750 c0 -14 2 -19 5 -12 2 6 2 18 0 25 -3 6 -5 1 -5 -13z"/>
<path d="M4130 7720 c0 -5 5 -10 10 -10 6 0 10 5 10 10 0 6 -4 10 -10 10 -5 0
-10 -4 -10 -10z"/>
<path d="M6775 7357 c0 -196 -4 -357 -9 -357 -4 0 -6 -7 -2 -15 3 -8 1 -15 -5
-15 -6 0 -7 -4 -4 -10 3 -5 2 -10 -4 -10 -5 0 -12 -8 -16 -19 -11 -36 -76 -90
-262 -221 -103 -73 -216 -160 -251 -194 -180 -175 -200 -444 -47 -624 48 -55
144 -133 335 -269 147 -105 236 -184 223 -197 -4 -3 -1 -6 6 -6 7 0 9 -4 6
-10 -3 -5 -2 -10 4 -10 6 0 8 -7 5 -15 -4 -8 -2 -15 2 -15 5 0 9 -174 9 -387
l-1 -388 6 355 c5 304 6 326 9 155 2 -132 6 -188 11 -165 5 19 6 38 4 42 -3 5
0 8 5 8 6 0 11 -4 11 -10 0 -5 5 -10 11 -10 6 0 9 6 6 14 -7 18 24 31 35 14 5
-9 8 -6 8 9 0 20 -3 21 -26 12 -15 -5 -29 -7 -32 -5 -5 6 42 26 59 26 5 0 9 7
9 17 0 13 4 11 20 -7 22 -25 26 -20 9 12 -10 19 -9 20 15 16 21 -4 26 -1 26
14 0 11 -4 17 -9 13 -5 -3 -12 -1 -15 4 -4 5 2 8 11 6 10 -1 24 3 32 9 12 9
14 8 9 -5 -5 -14 -3 -15 17 -5 13 6 21 14 19 18 -3 5 3 16 12 25 16 17 17 17
11 -7 -5 -21 -3 -26 13 -26 11 0 20 4 20 8 0 4 -6 8 -12 8 -7 0 -2 7 10 16 12
8 26 13 31 10 5 -4 12 0 14 6 4 10 6 10 6 1 1 -7 6 -13 11 -13 7 0 7 6 0 19
-14 28 20 33 42 6 10 -11 17 -15 18 -7 0 6 -4 12 -9 12 -5 0 -11 9 -14 20 -3
12 0 20 7 20 7 0 23 11 36 25 13 14 28 25 34 25 6 0 5 -4 -3 -9 -9 -6 -10 -11
-2 -15 6 -4 11 -4 11 1 0 4 5 1 11 -7 9 -12 10 -11 6 8 -5 23 1 26 53 23 18
-1 21 1 11 7 -11 8 -11 11 0 18 7 4 14 3 17 -4 2 -7 9 -12 15 -12 7 1 2 9 -10
19 l-22 18 25 12 c32 14 34 14 34 -4 0 -11 5 -12 24 -5 22 8 24 6 22 -15 -2
-13 1 -29 5 -37 5 -7 9 38 9 107 0 66 3 131 6 145 5 20 4 22 -6 10 -9 -12 -11
-8 -6 18 4 23 2 31 -6 26 -7 -5 -9 0 -6 14 4 12 2 22 -4 22 -6 0 -8 7 -4 15 3
8 1 15 -4 15 -5 0 -6 7 -3 17 5 12 3 14 -7 8 -10 -6 -12 -4 -7 8 3 10 2 17 -4
17 -6 0 -7 5 -4 10 3 6 1 10 -5 10 -6 0 -8 5 -5 10 3 6 1 10 -5 10 -6 0 -9 4
-5 9 3 6 -3 14 -12 20 -10 6 -14 11 -9 11 4 0 -2 9 -15 21 -13 11 -17 17 -9
14 8 -4 -5 12 -30 35 -25 23 -38 38 -30 34 36 -16 -67 65 -217 171 -89 64
-164 119 -167 123 -2 4 68 59 157 122 162 116 297 232 297 255 0 7 7 16 16 19
8 3 13 10 10 15 -3 5 1 12 10 15 8 3 12 10 9 16 -3 5 -1 10 6 10 7 0 10 3 6 6
-3 4 1 13 9 21 8 8 12 19 9 24 -4 5 -1 9 5 9 6 0 8 5 5 10 -3 6 -1 10 5 10 7
0 10 7 6 15 -3 8 -1 15 4 15 5 0 7 7 4 15 -4 8 -1 15 5 15 7 0 9 10 5 26 -4
17 -3 25 3 21 6 -4 9 22 7 71 -2 62 -1 69 5 32 l8 -45 1 63 c1 40 -2 61 -8 57
-6 -4 -10 17 -10 57 l0 63 -34 0 c-19 0 -34 -4 -33 -10 1 -5 -9 -11 -23 -13
-22 -4 -23 -2 -10 14 12 14 12 16 1 10 -8 -5 -17 -3 -22 5 -6 10 -9 11 -9 2 0
-7 -4 -13 -10 -13 -5 0 -10 9 -10 19 0 14 -5 18 -20 14 -11 -3 -20 -10 -20
-15 0 -6 6 -8 14 -5 8 3 17 -1 20 -9 8 -21 8 -24 -5 -24 -5 0 -7 5 -3 12 5 8
2 9 -10 5 -12 -5 -20 1 -29 21 -7 16 -18 27 -24 25 -7 -3 -13 1 -13 9 0 10 -2
10 -9 -1 -7 -11 -11 -10 -20 7 -11 21 -41 21 -41 0 0 -6 6 -5 15 2 11 9 15 9
15 1 0 -20 -27 -23 -53 -6 -18 11 -36 14 -64 10 -28 -5 -34 -4 -23 4 13 9 13
11 -2 11 -10 0 -18 5 -18 10 0 6 -5 10 -11 10 -5 0 -7 -5 -3 -12 4 -7 3 -8 -4
-4 -7 4 -12 14 -12 22 0 8 -4 12 -10 9 -5 -3 -23 -8 -40 -10 -25 -3 -29 -1
-21 9 15 17 -22 15 -43 -4 -9 -7 -20 -9 -24 -5 -4 4 -1 10 6 12 6 3 12 14 12
26 0 19 -2 18 -16 -8 -21 -41 -28 -45 -22 -12 3 15 1 27 -4 27 -5 0 -6 4 -3
10 3 6 -1 7 -10 4 -11 -5 -14 -2 -9 10 3 9 1 16 -5 16 -7 0 -12 -44 -13 -132
-2 -73 -5 20 -8 207 l-6 340 1 -358z m45 -107 c0 -5 -2 -10 -4 -10 -3 0 -8 5
-11 10 -3 6 -1 10 4 10 6 0 11 -4 11 -10z m370 -110 c0 -5 -5 -10 -11 -10 -5
0 -7 5 -4 10 3 6 8 10 11 10 2 0 4 -4 4 -10z m-287 -2047 c-7 -2 -19 -2 -25 0
-7 3 -2 5 12 5 14 0 19 -2 13 -5z"/>
<path d="M3425 7400 c-3 -6 1 -7 9 -4 18 7 21 14 7 14 -6 0 -13 -4 -16 -10z"/>
<path d="M3370 7380 c-11 -7 -11 -10 -2 -10 23 0 3 -18 -27 -25 -16 -3 -43
-19 -60 -36 -35 -33 -48 -36 -54 -11 -4 15 -5 15 -6 -2 -1 -16 -3 -17 -18 -5
-14 12 -16 12 -8 0 6 -11 4 -13 -8 -8 -22 8 -49 -2 -41 -15 4 -6 9 -6 14 2 5
8 9 4 13 -10 3 -12 3 -19 0 -16 -4 3 -13 0 -21 -7 -13 -9 -14 -9 -8 1 4 6 2
12 -3 12 -6 0 -11 -6 -11 -12 -1 -8 -6 -5 -15 5 -8 11 -21 17 -32 14 -14 -4
-14 -5 -2 -6 9 0 21 -13 28 -28 13 -28 13 -28 -8 -9 -16 14 -21 16 -21 5 0 -9
-3 -10 -8 -3 -4 7 -15 8 -27 3 -17 -6 -17 -8 -2 -8 9 -1 17 -5 17 -10 0 -10
-51 -7 -73 4 -6 4 -5 0 4 -7 12 -10 13 -16 5 -23 -16 -15 -46 -15 -46 0 0 9
-8 11 -22 7 -20 -5 -20 -6 -3 -12 18 -6 18 -7 0 -14 -10 -4 -21 -2 -25 4 -5 8
-10 5 -15 -7 -5 -10 -8 -21 -7 -24 1 -4 -8 -4 -20 -1 -12 3 -19 1 -15 -5 3 -5
-4 -9 -16 -9 -14 1 -21 -4 -19 -13 3 -12 0 -12 -12 -2 -12 10 -15 4 -20 -41
-13 -125 -15 -212 -5 -198 8 11 9 5 7 -22 -2 -21 0 -38 5 -38 4 0 6 -9 2 -19
-3 -11 -1 -22 5 -26 6 -3 8 -10 5 -15 -3 -5 -1 -11 5 -15 6 -4 8 -11 5 -16 -4
-5 -1 -9 5 -9 6 0 8 -4 5 -10 -3 -5 -1 -10 5 -10 6 0 8 -4 5 -10 -3 -5 -1 -10
5 -10 6 0 8 -4 5 -10 -3 -5 -1 -10 5 -10 6 0 9 -4 6 -9 -3 -5 1 -12 10 -15 8
-3 13 -10 10 -15 -3 -5 1 -12 10 -15 8 -3 13 -10 9 -15 -3 -6 4 -15 15 -21 11
-6 18 -15 15 -20 -9 -15 97 -102 273 -224 94 -66 169 -123 166 -127 -2 -4 -66
-51 -142 -105 -173 -123 -272 -203 -272 -219 0 -7 -12 -23 -27 -35 -16 -12
-21 -19 -13 -15 8 4 5 -3 -8 -14 -13 -11 -22 -21 -21 -23 6 -9 -14 -47 -22
-43 -8 6 -13 -8 -10 -27 0 -5 -3 -8 -9 -8 -5 0 -7 -7 -4 -15 4 -8 1 -15 -5
-15 -6 0 -8 -7 -4 -17 5 -11 3 -14 -6 -8 -10 5 -11 2 -6 -14 3 -11 3 -21 -2
-21 -4 0 -9 -15 -9 -32 -1 -18 -5 -91 -9 -162 -7 -118 -7 -129 8 -123 10 4 17
2 17 -3 0 -6 7 -10 16 -10 9 0 25 -10 36 -22 14 -16 18 -18 14 -6 -3 9 2 19
11 22 22 9 31 -3 13 -15 -11 -7 -7 -8 13 -3 16 4 27 2 27 -5 0 -6 7 -8 15 -5
18 7 20 -12 3 -20 -7 -3 -1 -4 15 -2 15 2 30 -1 33 -5 3 -5 11 -9 17 -9 8 0 8
3 -2 9 -9 6 -10 11 -2 15 6 4 11 2 11 -3 0 -6 7 -11 15 -11 8 0 15 -4 15 -10
0 -5 8 -6 18 -3 14 6 15 4 4 -9 -11 -14 -9 -17 18 -23 31 -7 39 -20 18 -28 -7
-3 -2 -6 11 -6 16 -1 21 3 18 13 -7 17 24 31 33 15 4 -6 10 -10 14 -10 18 3
20 0 6 -9 -13 -8 -12 -10 3 -10 9 0 17 -4 17 -9 0 -4 11 -6 24 -4 13 3 27 0
30 -6 4 -5 13 -8 21 -4 8 3 15 0 15 -6 0 -6 6 -11 14 -11 8 0 18 -9 21 -20 3
-11 13 -20 21 -20 8 0 14 -4 14 -9 0 -5 10 -7 23 -3 19 5 20 4 9 -11 -12 -14
-11 -15 13 -11 17 3 24 1 20 -6 -3 -5 -1 -10 4 -10 7 0 11 55 11 164 0 108 4
167 11 172 6 3 9 15 6 25 -3 11 -1 19 5 19 5 0 8 6 6 12 -3 7 -1 17 3 23 46
60 106 112 266 228 237 172 310 238 352 316 65 122 73 250 25 379 -48 129
-114 196 -354 362 -91 63 -189 137 -219 165 -50 47 -98 119 -92 139 1 5 -3 12
-8 15 -6 4 -11 78 -11 190 -1 135 -5 180 -13 172 -14 -14 -44 -15 -49 -1 -2 6
-8 6 -18 0z m15 -40 c-3 -5 -14 -10 -23 -10 -15 0 -15 2 -2 10 20 13 33 13 25
0z m-45 -14 c0 -2 -9 -6 -20 -9 -11 -3 -18 -1 -14 4 5 9 34 13 34 5z m-390
-186 c0 -5 -5 -10 -11 -10 -5 0 -7 5 -4 10 3 6 8 10 11 10 2 0 4 -4 4 -10z
m-40 -45 c0 -5 -5 -3 -10 5 -5 8 -10 20 -10 25 0 6 5 3 10 -5 5 -8 10 -19 10
-25z m-66 -1790 c-4 -8 -7 -15 -9 -15 -2 0 -5 7 -9 15 -3 9 0 15 9 15 9 0 12
-6 9 -15z m26 -5 c0 -5 -5 -10 -11 -10 -5 0 -7 5 -4 10 3 6 8 10 11 10 2 0 4
-4 4 -10z m120 -41 c0 -5 -9 -9 -20 -9 -11 0 -20 4 -20 8 0 4 9 8 20 9 11 1
20 -2 20 -8z m160 -79 c0 -5 -5 -10 -11 -10 -5 0 -7 5 -4 10 3 6 8 10 11 10 2
0 4 -4 4 -10z m120 -40 c0 -5 -5 -10 -11 -10 -5 0 -7 5 -4 10 3 6 8 10 11 10
2 0 4 -4 4 -10z"/>
<path d="M3257 7343 c-3 -5 -2 -15 2 -22 5 -7 11 -9 14 -4 3 5 2 15 -2 22 -5
7 -11 9 -14 4z"/>
<path d="M7056 7205 c4 -8 8 -15 10 -15 2 0 4 7 4 15 0 8 -4 15 -10 15 -5 0
-7 -7 -4 -15z"/>
<path d="M2815 7140 c-3 -5 -1 -10 4 -10 6 0 11 5 11 10 0 6 -2 10 -4 10 -3 0
-8 -4 -11 -10z"/>
<path d="M7375 7140 c-3 -5 -1 -10 4 -10 6 0 11 5 11 10 0 6 -2 10 -4 10 -3 0
-8 -4 -11 -10z"/>
<path d="M2771 5504 c0 -11 3 -14 6 -6 3 7 2 16 -1 19 -3 4 -6 -2 -5 -13z"/>
<path d="M7463 5405 c0 -38 2 -53 4 -32 2 20 2 52 0 70 -2 17 -4 1 -4 -38z"/>
<path d="M7335 5260 c-3 -5 -1 -10 4 -10 6 0 11 5 11 10 0 6 -2 10 -4 10 -3 0
-8 -4 -11 -10z"/>
<path d="M7410 5259 c0 -5 5 -7 10 -4 6 3 10 8 10 11 0 2 -4 4 -10 4 -5 0 -10
-5 -10 -11z"/>
<path d="M7210 5245 c-2 -5 -2 -13 -1 -17 0 -5 -3 -8 -9 -8 -5 0 -10 -4 -10
-8 0 -4 9 -8 20 -8 22 0 23 2 10 31 -5 11 -9 16 -10 10z"/>
<path d="M5458 5083 c-122 -86 -251 -178 -286 -204 l-62 -47 39 -29 c127 -91
376 -258 383 -255 4 1 8 -2 8 -7 0 -8 81 -66 90 -64 3 1 9 -5 13 -13 5 -8 12
-12 18 -9 5 4 12 -1 15 -9 3 -9 10 -14 14 -11 5 3 13 -3 19 -12 5 -10 12 -17
15 -15 12 5 22 1 46 -19 14 -11 19 -17 11 -13 -9 4 -12 3 -7 -4 4 -6 13 -9 20
-6 8 3 17 0 22 -7 5 -8 3 -10 -7 -4 -8 5 -11 4 -6 -1 5 -5 16 -9 25 -9 9 0 16
-5 15 -11 -1 -7 5 -11 15 -10 9 0 16 -5 14 -12 -1 -8 2 -11 8 -7 6 3 8 9 6 13
-6 10 21 32 29 24 4 -4 4 3 1 15 -6 18 -1 23 28 34 30 11 33 15 23 28 -9 11
-9 13 0 8 6 -4 14 -3 17 2 10 15 69 22 79 9 5 -8 6 -3 3 15 -6 26 -4 29 27 31
6 1 17 10 23 21 6 11 16 19 22 18 7 -2 12 4 12 12 0 8 6 15 13 15 19 0 49 38
34 43 -7 2 4 4 23 4 19 0 37 -4 40 -8 3 -5 12 2 19 14 13 20 13 21 -2 8 -15
-11 -17 -11 -17 2 0 17 24 40 33 30 4 -3 7 -1 7 6 0 7 5 9 13 5 6 -4 3 3 -7
15 -20 22 -20 22 0 15 10 -4 25 -12 33 -18 12 -9 12 -8 3 11 -16 30 -15 32 11
27 12 -2 16 -2 9 2 -20 9 -4 23 22 18 14 -2 29 3 36 12 8 8 9 14 4 13 -21 -4
-35 2 -29 11 4 6 3 10 -2 9 -22 -4 -34 2 -27 14 4 6 4 9 -1 5 -11 -10 -47 11
-40 23 4 5 3 9 -2 8 -20 -3 -34 2 -28 11 4 6 3 10 -2 9 -21 -4 -34 2 -27 13 4
7 3 8 -4 4 -7 -4 -23 4 -36 17 -14 14 -27 22 -30 20 -3 -3 -8 2 -12 11 -3 9
-10 14 -15 11 -4 -3 -13 4 -19 15 -6 11 -15 18 -19 15 -5 -3 -12 2 -15 11 -3
8 -10 12 -16 9 -6 -3 -13 1 -16 9 -3 9 -10 13 -15 10 -5 -3 -12 2 -15 10 -3 9
-10 13 -15 10 -5 -3 -12 2 -15 10 -3 9 -12 16 -19 16 -7 0 -16 7 -19 16 -3 8
-10 13 -15 10 -5 -4 -11 -2 -13 4 -4 13 -249 180 -264 180 -7 0 -113 -71 -236
-157z m652 -543 c0 -5 -5 -10 -11 -10 -5 0 -7 5 -4 10 3 6 8 10 11 10 2 0 4
-4 4 -10z m-74 -75 c-8 -8 -18 -15 -22 -15 -3 0 -1 7 6 15 7 8 17 15 22 15 5
0 3 -7 -6 -15z m-152 -127 c-3 -4 -11 -5 -19 -1 -21 7 -19 12 4 10 11 0 18 -5
15 -9z"/>
<path d="M2895 5220 c3 -5 8 -10 11 -10 2 0 4 5 4 10 0 6 -5 10 -11 10 -5 0
-7 -4 -4 -10z"/>
<path d="M3010 5180 c0 -5 5 -10 10 -10 6 0 10 5 10 10 0 6 -4 10 -10 10 -5 0
-10 -4 -10 -10z"/>
<path d="M3250 5101 c0 -6 5 -13 10 -16 6 -3 10 1 10 9 0 9 -4 16 -10 16 -5 0
-10 -4 -10 -9z"/>
<path d="M7003 5103 c-21 -8 -15 -22 7 -16 11 3 20 9 20 14 0 10 -8 10 -27 2z"/>
<path d="M5990 4420 c0 -5 4 -10 9 -10 6 0 13 5 16 10 3 6 -1 10 -9 10 -9 0
-16 -4 -16 -10z"/>
<path d="M5955 4380 c-3 -5 -1 -10 4 -10 6 0 11 5 11 10 0 6 -2 10 -4 10 -3 0
-8 -4 -11 -10z"/>
<path d="M2850 3595 c13 -14 26 -25 28 -25 3 0 -5 11 -18 25 -13 14 -26 25
-28 25 -3 0 5 -11 18 -25z"/>
<path d="M7374 3598 l-19 -23 23 19 c12 11 22 21 22 23 0 8 -8 2 -26 -19z"/>
<path d="M3038 3503 c7 -3 16 -2 19 1 4 3 -2 6 -13 5 -11 0 -14 -3 -6 -6z"/>
<path d="M3098 3503 c7 -3 16 -2 19 1 4 3 -2 6 -13 5 -11 0 -14 -3 -6 -6z"/>
<path d="M1788 3163 c6 -2 18 -2 25 0 6 3 1 5 -13 5 -14 0 -19 -2 -12 -5z"/>
<path d="M2998 3163 c29 -2 74 -2 100 0 26 2 2 3 -53 3 -55 0 -76 -1 -47 -3z"/>
<path d="M4893 2863 c15 -2 37 -2 50 0 12 2 0 4 -28 4 -27 0 -38 -2 -22 -4z"/>
<path d="M5465 2325 c0 -203 1 -285 2 -182 2 104 2 270 0 370 -1 100 -2 16 -2
-188z"/>
<path d="M3870 2636 c0 -2 8 -10 18 -17 15 -13 16 -12 3 4 -13 16 -21 21 -21
13z"/>
<path d="M4940 2616 c0 -2 8 -10 18 -17 15 -13 16 -12 3 4 -13 16 -21 21 -21
13z"/>
<path d="M8193 2550 c0 -41 2 -58 4 -37 2 20 2 54 0 75 -2 20 -4 3 -4 -38z"/>
<path d="M8453 2525 c0 -22 2 -30 4 -17 2 12 2 30 0 40 -3 9 -5 -1 -4 -23z"/>
<path d="M4174 2230 c0 -162 2 -229 3 -147 2 81 2 213 0 295 -1 81 -3 14 -3
-148z"/>
<path d="M8452 2370 c0 -19 2 -27 5 -17 2 9 2 25 0 35 -3 9 -5 1 -5 -18z"/>
<path d="M8454 2115 c0 -99 2 -138 3 -87 2 51 2 132 0 180 -1 48 -3 6 -3 -93z"/>
<path d="M8191 2094 c0 -11 3 -14 6 -6 3 7 2 16 -1 19 -3 4 -6 -2 -5 -13z"/>
<path d="M4491 1494 c0 -11 3 -14 6 -6 3 7 2 16 -1 19 -3 4 -6 -2 -5 -13z"/>
<path d="M6373 1483 c9 -2 25 -2 35 0 9 3 1 5 -18 5 -19 0 -27 -2 -17 -5z"/>
<path d="M6552 1440 c0 -19 2 -27 5 -17 2 9 2 25 0 35 -3 9 -5 1 -5 -18z"/>
<path d="M7324 1368 l-19 -23 23 19 c21 18 27 26 19 26 -2 0 -12 -10 -23 -22z"/>
<path d="M3968 1263 c12 -2 32 -2 45 0 12 2 2 4 -23 4 -25 0 -35 -2 -22 -4z"/>
<path d="M7279 1223 c-13 -16 -12 -17 4 -4 9 7 17 15 17 17 0 8 -8 3 -21 -13z"/>
<path d="M3430 1166 c0 -2 8 -10 18 -17 15 -13 16 -12 3 4 -13 16 -21 21 -21
13z"/>
<path d="M7462 1145 c0 -16 2 -22 5 -12 2 9 2 23 0 30 -3 6 -5 -1 -5 -18z"/>
</g>
</svg>
